<svg width="24" height="24" viewBox="0 0 24 24" fill="none" xmlns="http://www.w3.org/2000/svg">
<mask id="mask0_20_52" style="mask-type:alpha" maskUnits="userSpaceOnUse" x="0" y="0" width="24" height="24">
<rect width="24" height="24" fill="#D9D9D9"/>
</mask>
<g mask="url(#mask0_20_52)">
<path d="M12 13.4905L6.78327 18.7072C6.58809 18.9024 6.33967 19 6.03802 19C5.73637 19 5.48796 18.9024 5.29278 18.7072C5.09759 18.512 5 18.2636 5 17.962C5 17.6603 5.09759 17.4119 5.29278 17.2167L10.5095 12L5.29278 6.78327C5.09759 6.58809 5 6.33967 5 6.03802C5 5.73637 5.09759 5.48796 5.29278 5.29278C5.48796 5.09759 5.73637 5 6.03802 5C6.33967 5 6.58809 5.09759 6.78327 5.29278L12 10.5095L17.2167 5.29278C17.4119 5.09759 17.6603 5 17.962 5C18.2636 5 18.512 5.09759 18.7072 5.29278C18.9024 5.48796 19 5.73637 19 6.03802C19 6.33967 18.9024 6.58809 18.7072 6.78327L13.4905 12L18.7072 17.2167C18.9024 17.4119 19 17.6603 19 17.962C19 18.2636 18.9024 18.512 18.7072 18.7072C18.512 18.9024 18.2636 19 17.962 19C17.6603 19 17.4119 18.9024 17.2167 18.7072L12 13.4905Z" fill="black"/>
</g>
</svg>
